<svg viewBox="0 0 647 64" class="w-full fill-white" xmlns="http://www.w3.org/2000/svg">
    <path d="M40.2005 0.320068C44.2105 0.320068 47.8705 0.590056 51.1705 1.12006C54.4705 1.65006 57.3006 2.52006 59.6606 3.73006C62.0206 4.94006 63.8505 6.55006 65.1505 8.56006C66.4505 10.5701 67.1006 13.0501 67.1006 16.0001C67.1006 19.1901 66.1406 21.8501 64.2106 23.9701C62.2806 26.1001 59.4306 27.8401 55.6606 29.2001C60.8506 30.3201 64.7305 32.2901 67.2805 35.0901C69.8405 37.9001 71.1205 41.2801 71.1205 45.2401C71.1205 48.4301 70.2905 51.1901 68.6405 53.5301C66.9905 55.8601 64.7705 57.7701 61.9805 59.2501C59.1905 60.7301 56.0005 61.8201 52.4205 62.5301C48.8405 63.2401 45.1605 63.5901 41.3905 63.5901H0.560547V0.320068H40.2005ZM37.8405 25.9301C41.1405 25.9301 43.8605 25.3401 45.9805 24.1601C48.1005 22.9801 49.1606 21.0601 49.1606 18.4001C49.1606 16.9201 48.8106 15.7101 48.1006 14.7701C47.3906 13.8301 46.4506 13.0801 45.2706 12.5501C44.0906 12.0201 42.7305 11.6501 41.2005 11.4401C39.6705 11.2301 38.0705 11.1301 36.4205 11.1301H19.0806V25.9301H37.8405ZM38.9005 52.7801C40.7105 52.7801 42.4405 52.6501 44.0905 52.3801C45.7405 52.1101 47.2005 51.67 48.4505 51.05C49.7005 50.43 50.7106 49.5901 51.4606 48.5201C52.2106 47.45 52.5806 46.1001 52.5806 44.4401C52.5806 41.1901 51.3605 38.8701 48.9205 37.4801C46.4805 36.0901 43.2605 35.4001 39.2505 35.4001H19.0705V52.7701H38.9005V52.7801Z"></path>
    <path d="M122.44 0.320068V51.8901H161.09L160.88 63.5901H103.92V0.320068H122.44Z"></path>
    <path d="M236.17 0.320068L267.67 63.5901H248.44L242.07 49.5001H210.57L203.96 63.5901H185.32L217.18 0.320068H236.17ZM237.24 39.1301L226.62 15.9101H226.38L215.41 39.1301H237.24Z"></path>
    <path d="M313.811 0.320068V26.55L346.731 0.320068H369.861L336.941 25.3101L373.051 63.5901H349.811L324.441 35.1401L313.821 43.2001V63.58H295.291V0.310059H313.811V0.320068Z"></path>
    <path d="M463.27 0.320068V12.0201H419.28V25.58H459V36.3901H419.28V51.9001H463.27L463.15 63.6001H400.76V0.330063H463.27V0.320068Z"></path>
    <path d="M516.11 0.460083V52.0301H554.76L554.55 63.7301H497.59V0.460083H516.11Z"></path>
    <path d="M565.59 0.320068H586.36L606.06 25.3101L625.65 0.320068H646.3L615.03 39.3101V63.5901H596.5V38.9501L565.59 0.320068Z"></path>
</svg>