<svg fill="none" class="icon icon-search" viewBox="0 0 24 24" xmlns="http://www.w3.org/2000/svg">
  <path
    fill="currentColor"
    fill-rule="evenodd"
    clip-rule="evenodd"
    d="M21,21.8c-0.2,0-0.4-0.1-0.5-0.2l-4.7-4.7c-3.2,2.7-8.1,2.5-11.1-0.5c-3.2-3.2-3.2-8.5,0-11.7c1.6-1.6,3.6-2.4,5.8-2.4
      s4.3,0.9,5.8,2.4c1.6,1.6,2.4,3.6,2.4,5.8c0,2-0.7,3.8-1.9,5.3l4.7,4.7c0.3,0.3,0.3,0.8,0,1.1C21.4,21.7,21.2,21.8,21,21.8z
      M10.5,3.7c-1.8,0-3.5,0.7-4.8,2c-2.6,2.6-2.6,6.9,0,9.5c2.6,2.6,6.9,2.6,9.5,0l0,0c1.3-1.3,2-3,2-4.8c0-1.8-0.7-3.5-2-4.8
      C14,4.5,12.3,3.7,10.5,3.7z"
  />
</svg>
