<svg xmlns="http://www.w3.org/2000/svg" fill="none" class="icon icon-account" viewBox="0 0 24 24">
  <path
    fill="currentColor"
    fill-rule="evenodd"
    clip-rule="evenodd"
    d="M22.6,20.2c-0.1-0.8-0.5-1.6-1-2.3c-0.2-0.3-0.6-0.7-0.9-0.9c-1.4-1.1-3.6-1.8-6.4-2c-0.1,0-0.2,0-0.3,0
      c0.9-0.4,1.7-1.1,2.3-2c0.7-1,1.1-2.2,1.3-3.4c0-0.4,0.1-1.3,0-1.6c-0.1-0.9-0.3-1.6-0.7-2.3c-0.3-0.6-0.6-1-1.1-1.5
      c-0.3-0.3-0.5-0.5-0.8-0.7c-0.7-0.5-1.4-0.8-2.2-0.9c-0.3,0-1-0.1-1.2,0C10.2,2.6,9,3.2,8.1,4.2C7.6,4.6,7.3,5.1,7,5.7
      C6.6,6.5,6.4,7.2,6.4,8.1c0,0.4,0,1.2,0,1.6c0.3,2.4,1.7,4.4,3.5,5.3C8,15.1,6.3,15.4,5,16c-1.5,0.7-2.6,1.6-3.2,2.8
      c-0.3,0.7-0.5,1.4-0.5,2.1l0,0.4l0.1,0.2C1.6,21.8,1.9,22,2.2,22h0.2l0-0.8c0-0.5,0-0.6,0-0.8c0.1-0.5,0.2-0.8,0.4-1.2
      c0.5-1.1,1.6-1.9,3.1-2.5c1.2-0.5,2.6-0.7,4.6-0.8c0.5,0,2.4,0,2.9,0c1.2,0.1,1.9,0.2,2.8,0.3c1.1,0.2,1.9,0.5,2.7,0.9
      c1.4,0.7,2.3,1.7,2.6,3c0.1,0.3,0.1,0.5,0.1,1.1l0,0.8l0.4,0c0.3,0,0.6-0.2,0.7-0.5C22.7,21.1,22.7,20.6,22.6,20.2z M12,3.5
      c0,0,0.2,0,0.3,0c0.6,0,1.1,0.2,1.7,0.4c1.8,0.9,2.9,3.2,2.6,5.5c-0.3,2.3-1.6,4.2-3.4,4.8c-0.7,0.2-1.4,0.3-2.1,0
      C9.4,13.8,8,12,7.6,10C7.5,9.5,7.4,9.3,7.4,8.7c0-0.6,0-0.8,0.1-1.2c0.2-0.8,0.6-1.6,1.1-2.2C8.8,5,9.1,4.6,9.3,4.5
      c0.7-0.6,1.6-0.9,2.5-1C11.9,3.5,12,3.5,12,3.5C12,3.5,12,3.5,12,3.5z"
  />
</svg>
