<svg xmlns="http://www.w3.org/2000/svg" fill="none" class="icon icon-cart-empty" viewBox="0 0 24 24">
  <path fill="currentColor" fill-rule="evenodd" d="M19.6,6c0-0.1-0.1-0.1-0.2-0.2l-0.1-0.1h-3.2l0-1.3c0-1.6,0-1.6-0.1-1.7c0-0.1-0.1-0.1-0.1-0.1l-0.1-0.1H12 
  c-3.8,0-3.8,0-3.9,0h0C8,2.6,7.9,2.7,7.8,2.8c0,0.1,0,0.1,0,1.7v1.3l-1.5,0c-1.7,0-1.7,0-1.8,0.1c0,0-0.1,0.1-0.2,0.2l0,0.1l0,15.4 
  l0.1,0.2c0,0.1,0.1,0.2,0.2,0.2L4.6,22l14.6,0l0.1,0l0.1-0.1c0.1,0,0.1-0.1,0.2-0.1l0.1-0.1l0-15.5l0-0.1L19.6,6z 
  M8.8,5.8V3.5h6.4l0,2.3L8.8,5.8z 
  M18.7,6.8V21H5.3V6.8H18.7z"/>
</svg>